<?xml version="1.0" encoding="utf-8"?>
<!-- Generator: Adobe Illustrator 16.0.0, SVG Export Plug-In . SVG Version: 6.00 Build 0)  -->
<!DOCTYPE svg PUBLIC "-//W3C//DTD SVG 1.1//EN" "http://www.w3.org/Graphics/SVG/1.1/DTD/svg11.dtd">
<svg version="1.1" id="Capa_1" xmlns="http://www.w3.org/2000/svg" xmlns:xlink="http://www.w3.org/1999/xlink" x="0px" y="0px"
	 width="494px" height="101.932px" viewBox="0 0 494 101.932" enable-background="new 0 0 494 101.932" xml:space="preserve">
<rect x="116.467" y="-39.324" display="none" fill="#030104" width="366.249" height="284.271"/>
<g>
	<g display="none">
		<rect x="-8.183" y="-6.244" display="inline" fill="#FFFFFF" width="123.501" height="114.028"/>
	</g>
	<g>
		<g opacity="0.3">
			<ellipse fill="#1B2268" cx="53.568" cy="92.282" rx="36.721" ry="1.927"/>
		</g>
		<g>
			<g>
				<ellipse fill="#1B2268" cx="53.568" cy="49.331" rx="42.092" ry="38.863"/>
			</g>
			<g>
				<g>
					<g>
						<line fill="#4B5967" x1="85.076" y1="30.727" x2="75.904" y2="30.727"/>
						<path fill="#71A94D" d="M85.076,31.286h-9.172c-0.334,0-0.608-0.251-0.608-0.56s0.274-0.561,0.608-0.561h9.172
							c0.336,0,0.607,0.252,0.607,0.561S85.412,31.286,85.076,31.286z"/>
					</g>
					<g>
						<line fill="#4B5967" x1="72.502" y1="30.727" x2="68.604" y2="30.727"/>
						<path fill="#F0E02D" d="M72.502,31.286h-3.897c-0.336,0-0.608-0.251-0.608-0.56s0.272-0.561,0.608-0.561h3.897
							c0.334,0,0.605,0.252,0.605,0.561S72.836,31.286,72.502,31.286z"/>
					</g>
					<g>
						<line fill="#4B5967" x1="85.133" y1="35.588" x2="77.552" y2="35.588"/>
						<path fill="#F0E02D" d="M85.133,36.148h-7.581c-0.334,0-0.606-0.252-0.606-0.561s0.272-0.563,0.606-0.563h7.581
							c0.336,0,0.607,0.254,0.607,0.563S85.469,36.148,85.133,36.148z"/>
					</g>
					<g>
						<line fill="#4B5967" x1="74.751" y1="35.588" x2="61.4" y2="35.588"/>
						<path fill="#71A94D" d="M74.751,36.148H61.4c-0.336,0-0.607-0.252-0.607-0.561s0.271-0.563,0.607-0.563h13.351
							c0.334,0,0.608,0.254,0.608,0.563S75.085,36.148,74.751,36.148z"/>
					</g>
					<g>
						<line fill="#4B5967" x1="58.269" y1="35.588" x2="51.676" y2="35.588"/>
						<path fill="#3FA6D6" d="M58.269,36.148h-6.592c-0.335,0-0.607-0.252-0.607-0.561s0.271-0.563,0.607-0.563h6.592
							c0.336,0,0.607,0.254,0.607,0.563S58.604,36.148,58.269,36.148z"/>
					</g>
					<g>
						<line fill="#4B5967" x1="85.133" y1="40.105" x2="69.971" y2="40.105"/>
						<path fill="#D48231" d="M85.133,40.666H69.971c-0.336,0-0.607-0.252-0.607-0.561c0-0.311,0.271-0.562,0.607-0.562h15.163
							c0.336,0,0.607,0.251,0.607,0.562C85.741,40.414,85.469,40.666,85.133,40.666z"/>
					</g>
					<g>
						<line fill="#4B5967" x1="66.485" y1="40.105" x2="62.695" y2="40.105"/>
						<path fill="#F0E02D" d="M66.485,40.666h-3.79c-0.336,0-0.608-0.252-0.608-0.561c0-0.311,0.272-0.562,0.608-0.562h3.79
							c0.336,0,0.607,0.251,0.607,0.562C67.092,40.414,66.821,40.666,66.485,40.666z"/>
					</g>
					<g>
						<line fill="#4B5967" x1="85.464" y1="44.274" x2="64.697" y2="44.274"/>
						<path fill="#3FA6D6" d="M85.464,44.836H64.697c-0.336,0-0.608-0.251-0.608-0.562c0-0.309,0.272-0.56,0.608-0.56h20.767
							c0.335,0,0.606,0.251,0.606,0.56C86.071,44.585,85.799,44.836,85.464,44.836z"/>
					</g>
					<g>
						<line fill="#4B5967" x1="61.894" y1="44.274" x2="56.456" y2="44.274"/>
						<path fill="#71A94D" d="M61.894,44.836h-5.438c-0.336,0-0.607-0.251-0.607-0.562c0-0.309,0.271-0.56,0.607-0.56h5.438
							c0.336,0,0.608,0.251,0.608,0.56C62.502,44.585,62.23,44.836,61.894,44.836z"/>
					</g>
					<g>
						<line fill="#4B5967" x1="85.464" y1="48.446" x2="72.608" y2="48.446"/>
						<path fill="#71A94D" d="M85.464,49.007H72.608c-0.334,0-0.607-0.252-0.607-0.561c0-0.312,0.273-0.562,0.607-0.562h12.856
							c0.335,0,0.606,0.25,0.606,0.562C86.071,48.755,85.799,49.007,85.464,49.007z"/>
					</g>
					<g>
						<line fill="#4B5967" x1="69.807" y1="48.446" x2="60.412" y2="48.446"/>
						<path fill="#F0E02D" d="M69.807,49.007h-9.395c-0.336,0-0.608-0.252-0.608-0.561c0-0.312,0.272-0.562,0.608-0.562h9.395
							c0.334,0,0.605,0.25,0.605,0.562C70.413,48.755,70.141,49.007,69.807,49.007z"/>
					</g>
					<g>
						<line fill="#4B5967" x1="85.347" y1="52.626" x2="79.861" y2="52.626"/>
						<path fill="#D48231" d="M85.347,53.187h-5.486c-0.336,0-0.607-0.252-0.607-0.561s0.271-0.562,0.607-0.562h5.486
							c0.336,0,0.608,0.253,0.608,0.562S85.683,53.187,85.347,53.187z"/>
					</g>
					<g>
						<line fill="#4B5967" x1="76.258" y1="52.626" x2="67.31" y2="52.626"/>
						<path fill="#3FA6D6" d="M76.258,53.187H67.31c-0.336,0-0.607-0.252-0.607-0.561s0.271-0.562,0.607-0.562h8.948
							c0.336,0,0.607,0.253,0.607,0.562S76.594,53.187,76.258,53.187z"/>
					</g>
					<g>
						<line fill="#4B5967" x1="85.464" y1="57.133" x2="74.256" y2="57.133"/>
						<path fill="#F0E02D" d="M85.464,57.693H74.256c-0.334,0-0.606-0.25-0.606-0.561c0-0.31,0.272-0.561,0.606-0.561h11.208
							c0.335,0,0.606,0.251,0.606,0.561C86.071,57.443,85.799,57.693,85.464,57.693z"/>
					</g>
					<g>
						<line fill="#4B5967" x1="71.207" y1="57.133" x2="64.945" y2="57.133"/>
						<path fill="#D48231" d="M71.207,57.693h-6.262c-0.336,0-0.608-0.25-0.608-0.561c0-0.31,0.272-0.561,0.608-0.561h6.262
							c0.335,0,0.608,0.251,0.608,0.561C71.815,57.443,71.542,57.693,71.207,57.693z"/>
					</g>
					<g>
						<line fill="#4B5967" x1="85.464" y1="61.304" x2="78.541" y2="61.304"/>
						<path fill="#71A94D" d="M85.464,61.862h-6.923c-0.334,0-0.606-0.25-0.606-0.559s0.272-0.561,0.606-0.561h6.923
							c0.335,0,0.606,0.252,0.606,0.561S85.799,61.862,85.464,61.862z"/>
					</g>
					<g>
						<line fill="#4B5967" x1="75.081" y1="61.304" x2="71.784" y2="61.304"/>
						<path fill="#71A94D" d="M75.081,61.862h-3.296c-0.336,0-0.607-0.25-0.607-0.559s0.271-0.561,0.607-0.561h3.296
							c0.336,0,0.606,0.252,0.606,0.561S75.417,61.862,75.081,61.862z"/>
					</g>
				</g>
				<g>
					<line fill="#4B5967" x1="22.06" y1="61.572" x2="31.232" y2="61.572"/>
					<path fill="#71A94D" d="M31.232,62.135H22.06c-0.335,0-0.607-0.251-0.607-0.563c0-0.309,0.272-0.559,0.607-0.559h9.172
						c0.336,0,0.608,0.25,0.608,0.559C31.84,61.884,31.568,62.135,31.232,62.135z"/>
				</g>
				<g>
					<line fill="#4B5967" x1="34.636" y1="61.572" x2="38.533" y2="61.572"/>
					<path fill="#F0E02D" d="M38.533,62.135h-3.897c-0.335,0-0.607-0.251-0.607-0.563c0-0.309,0.272-0.559,0.607-0.559h3.897
						c0.335,0,0.607,0.25,0.607,0.559C39.14,61.884,38.868,62.135,38.533,62.135z"/>
				</g>
				<g>
					<line fill="#4B5967" x1="22.002" y1="56.712" x2="29.583" y2="56.712"/>
					<path fill="#3FA6D6" d="M29.583,57.273h-7.581c-0.335,0-0.607-0.25-0.607-0.562c0-0.309,0.272-0.56,0.607-0.56h7.581
						c0.336,0,0.608,0.251,0.608,0.56C30.192,57.023,29.92,57.273,29.583,57.273z"/>
				</g>
				<g>
					<line fill="#4B5967" x1="32.386" y1="56.712" x2="45.736" y2="56.712"/>
					<path fill="#71A94D" d="M45.736,57.273h-13.35c-0.335,0-0.607-0.25-0.607-0.562c0-0.309,0.271-0.56,0.607-0.56h13.35
						c0.335,0,0.607,0.251,0.607,0.56C46.343,57.023,46.071,57.273,45.736,57.273z"/>
				</g>
				<g>
					<line fill="#4B5967" x1="48.867" y1="56.712" x2="55.46" y2="56.712"/>
					<path fill="#3FA6D6" d="M55.46,57.273h-6.593c-0.335,0-0.607-0.25-0.607-0.562c0-0.309,0.272-0.56,0.607-0.56h6.593
						c0.335,0,0.607,0.251,0.607,0.56C56.067,57.023,55.795,57.273,55.46,57.273z"/>
				</g>
				<g>
					<line fill="#4B5967" x1="22.002" y1="52.194" x2="37.166" y2="52.194"/>
					<path fill="#F0E02D" d="M37.166,52.756H22.002c-0.335,0-0.607-0.252-0.607-0.562s0.272-0.56,0.607-0.56h15.163
						c0.335,0,0.607,0.25,0.607,0.56S37.501,52.756,37.166,52.756z"/>
				</g>
				<g>
					<line fill="#4B5967" x1="40.651" y1="52.194" x2="44.442" y2="52.194"/>
					<path fill="#F0E02D" d="M44.442,52.756h-3.791c-0.335,0-0.607-0.252-0.607-0.562s0.272-0.56,0.607-0.56h3.791
						c0.336,0,0.607,0.25,0.607,0.56S44.778,52.756,44.442,52.756z"/>
				</g>
				<g>
					<line fill="#4B5967" x1="21.672" y1="48.024" x2="42.439" y2="48.024"/>
					<path fill="#D48231" d="M42.439,48.587H21.672c-0.336,0-0.607-0.252-0.607-0.563c0-0.31,0.271-0.561,0.607-0.561h20.767
						c0.335,0,0.607,0.251,0.607,0.561C43.046,48.335,42.774,48.587,42.439,48.587z"/>
				</g>
				<g>
					<line fill="#4B5967" x1="45.242" y1="48.024" x2="50.681" y2="48.024"/>
					<path fill="#71A94D" d="M50.681,48.587h-5.439c-0.335,0-0.607-0.252-0.607-0.563c0-0.31,0.271-0.561,0.607-0.561h5.439
						c0.335,0,0.607,0.251,0.607,0.561C51.288,48.335,51.016,48.587,50.681,48.587z"/>
				</g>
				<g>
					<line fill="#4B5967" x1="21.672" y1="43.855" x2="34.528" y2="43.855"/>
					<path fill="#71A94D" d="M34.528,44.415H21.672c-0.336,0-0.607-0.251-0.607-0.56c0-0.312,0.271-0.562,0.607-0.562h12.855
						c0.336,0,0.607,0.25,0.607,0.562C35.135,44.164,34.864,44.415,34.528,44.415z"/>
				</g>
				<g>
					<line fill="#4B5967" x1="37.331" y1="43.855" x2="46.725" y2="43.855"/>
					<path fill="#F0E02D" d="M46.725,44.415h-9.394c-0.336,0-0.607-0.251-0.607-0.56c0-0.312,0.271-0.562,0.607-0.562h9.394
						c0.335,0,0.607,0.25,0.607,0.562C47.332,44.164,47.06,44.415,46.725,44.415z"/>
				</g>
				<g>
					<line fill="#4B5967" x1="21.789" y1="39.673" x2="27.276" y2="39.673"/>
					<path fill="#D48231" d="M27.276,40.235h-5.488c-0.335,0-0.607-0.251-0.607-0.563c0-0.309,0.271-0.559,0.607-0.559h5.488
						c0.335,0,0.607,0.25,0.607,0.559C27.883,39.984,27.611,40.235,27.276,40.235z"/>
				</g>
				<g>
					<line fill="#4B5967" x1="30.878" y1="39.673" x2="39.827" y2="39.673"/>
					<path fill="#3FA6D6" d="M39.827,40.235h-8.949c-0.335,0-0.607-0.251-0.607-0.563c0-0.309,0.272-0.559,0.607-0.559h8.949
						c0.335,0,0.607,0.25,0.607,0.559C40.434,39.984,40.162,40.235,39.827,40.235z"/>
				</g>
				<g>
					<line fill="#4B5967" x1="21.672" y1="35.168" x2="32.88" y2="35.168"/>
					<path fill="#F0E02D" d="M32.88,35.727H21.672c-0.336,0-0.607-0.25-0.607-0.559c0-0.311,0.271-0.563,0.607-0.563H32.88
						c0.336,0,0.607,0.252,0.607,0.563C33.487,35.477,33.216,35.727,32.88,35.727z"/>
				</g>
				<g>
					<line fill="#4B5967" x1="35.929" y1="35.168" x2="42.192" y2="35.168"/>
					<path fill="#D48231" d="M42.192,35.727h-6.263c-0.335,0-0.607-0.25-0.607-0.559c0-0.311,0.271-0.563,0.607-0.563h6.263
						c0.335,0,0.607,0.252,0.607,0.563C42.8,35.477,42.527,35.727,42.192,35.727z"/>
				</g>
				<g>
					<line fill="#4B5967" x1="21.672" y1="30.997" x2="28.595" y2="30.997"/>
					<path fill="#71A94D" d="M28.595,31.558h-6.922c-0.336,0-0.607-0.25-0.607-0.561s0.271-0.561,0.607-0.561h6.922
						c0.335,0,0.608,0.25,0.608,0.561S28.93,31.558,28.595,31.558z"/>
				</g>
				<g>
					<line fill="#4B5967" x1="32.056" y1="30.997" x2="51.716" y2="30.997"/>
					<path fill="#71A94D" d="M51.716,31.558h-19.66c-0.335,0-0.607-0.25-0.607-0.561s0.271-0.561,0.607-0.561h19.66
						c0.334,0,0.607,0.25,0.607,0.561S52.05,31.558,51.716,31.558z"/>
				</g>
				<g>
					<line fill="#4B5967" x1="45.231" y1="30.997" x2="53.877" y2="30.997"/>
					<path fill="#F0E02D" d="M53.877,31.558h-8.646c-0.335,0-0.607-0.25-0.607-0.561s0.272-0.561,0.607-0.561h8.646
						c0.334,0,0.607,0.25,0.607,0.561S54.212,31.558,53.877,31.558z"/>
				</g>
			</g>
			<g>
				<g>
					<path fill="#FFFFFF" d="M36.577,88.513c-0.928,1.226-2.513,1.884-4.127,1.785c-5.755-0.353-7.904-2.568-8.457-5.031
						c-0.131-0.582-0.171-1.178-0.151-1.767c0.039-1.087,0.294-2.147,0.593-3.046c0.258-0.77,0.548-1.421,0.768-1.867
						c0.206-0.417,0.351-0.661,0.351-0.661c3.532-0.929,6.03,0.794,6.03,0.794l0.026,3.118l0.335-0.018
						c1.571-0.081,3.086,0.563,4.034,1.721C37.779,85.738,37.43,87.389,36.577,88.513z"/>
				</g>
				<g>
					<path fill="#86819B" d="M27.963,80.612c-0.764,0.134-2.052,0.239-3.528-0.158c0.258-0.77,0.548-1.421,0.768-1.867
						c0.854,0.579,1.83,1.162,2.818,1.582C28.245,80.264,28.205,80.567,27.963,80.612z"/>
				</g>
				<g>
					<path fill="#86819B" d="M26.566,84.518c-0.554,0.271-1.442,0.617-2.573,0.749c-0.131-0.582-0.171-1.178-0.151-1.767
						c0.85,0.251,1.757,0.47,2.64,0.581C26.726,84.112,26.785,84.41,26.566,84.518z"/>
				</g>
				<g opacity="0.3">
					<path fill="#1B2268" d="M30.215,90.041c0,0,3.042-6.051-2.094-7.772c0,0,4.957-3.62-2.917-3.682l0.35-0.658
						c0,0,3.379-0.852,5.786,0.658l1.254,10.296c0,0-0.723,0.646-0.488,1.426L30.215,90.041z"/>
				</g>
				<g>
					<path fill="#1B2268" d="M31.592,82.331c-0.117,0.008-0.266,0.009-0.401,0.015l-0.421,0.009
						c-0.283,0.007-0.567,0.014-0.854,0.024c-0.286,0.01-0.575,0.026-0.867,0.046c-0.293,0.016-0.585,0.045-0.89,0.061l-0.004,0.002
						c-0.063,0.003-0.117-0.043-0.121-0.101c-0.003-0.039,0.018-0.073,0.05-0.093c0.514-0.323,1.088-0.552,1.683-0.716
						c0.298-0.084,0.601-0.146,0.909-0.188c0.154-0.022,0.31-0.035,0.466-0.045c0.161-0.008,0.308-0.014,0.487,0
						c0.294,0.021,0.513,0.26,0.49,0.53c-0.021,0.248-0.236,0.438-0.495,0.454L31.592,82.331z"/>
				</g>
				<g>
					<path fill="#1B2268" d="M32.765,90.802c-0.116,0-0.232-0.004-0.349-0.011c-4.181-0.256-6.965-1.508-8.276-3.72
						c-2.292-3.867,0.812-9.159,0.946-9.382c0.068-0.116,0.185-0.201,0.322-0.237c3.743-0.984,6.386,0.797,6.497,0.872
						c0.133,0.093,0.213,0.239,0.215,0.393l0.022,2.604c1.671-0.024,3.256,0.688,4.266,1.921c2.068,2.527,1.472,4.416,0.608,5.556
						C36.062,90.052,34.458,90.802,32.765,90.802z M25.92,78.347c-0.503,0.932-2.635,5.231-0.842,8.253
						c1.125,1.895,3.617,2.975,7.408,3.207c1.448,0.087,2.849-0.516,3.653-1.575c0.961-1.268,0.764-2.745-0.585-4.394
						c-0.84-1.026-2.179-1.599-3.578-1.525l-0.335,0.017c-0.147,0.01-0.29-0.039-0.396-0.132c-0.107-0.092-0.167-0.221-0.169-0.356
						l-0.023-2.854C30.43,78.638,28.503,77.744,25.92,78.347z"/>
				</g>
			</g>
			<g>
				<g>
					<path fill="#FFFFFF" d="M70.665,88.513c0.928,1.226,2.512,1.884,4.128,1.785c5.754-0.353,7.904-2.568,8.456-5.031
						c0.131-0.582,0.172-1.178,0.151-1.767c-0.039-1.087-0.294-2.147-0.593-3.046c-0.257-0.77-0.548-1.421-0.769-1.867
						c-0.206-0.417-0.351-0.661-0.351-0.661c-3.531-0.929-6.03,0.794-6.03,0.794l-0.026,3.118l-0.336-0.018
						c-1.571-0.081-3.087,0.563-4.034,1.721C69.464,85.738,69.812,87.389,70.665,88.513z"/>
				</g>
				<g>
					<path fill="#86819B" d="M79.279,80.612c0.763,0.134,2.051,0.239,3.527-0.158c-0.257-0.77-0.548-1.421-0.769-1.867
						c-0.854,0.579-1.83,1.162-2.817,1.582C78.998,80.264,79.036,80.567,79.279,80.612z"/>
				</g>
				<g>
					<path fill="#86819B" d="M80.677,84.518c0.552,0.271,1.441,0.617,2.572,0.749c0.131-0.582,0.172-1.178,0.151-1.767
						c-0.849,0.251-1.757,0.47-2.64,0.581C80.516,84.112,80.458,84.41,80.677,84.518z"/>
				</g>
				<g opacity="0.3">
					<path fill="#1B2268" d="M83.4,83.5c-0.039-1.087-0.294-2.147-0.593-3.046c-0.257-0.77-0.548-1.421-0.769-1.867
						c-0.206-0.417-0.351-0.661-0.351-0.661c-0.061-0.015-0.121-0.029-0.182-0.042c0.129,0.306,0.261,0.648,0.386,1.02
						c0.299,0.9,0.553,1.959,0.593,3.046c0.02,0.588-0.021,1.184-0.151,1.767c-0.552,2.463-2.701,4.681-8.458,5.033
						c-1.44,0.087-2.855-0.43-3.804-1.41c0.121,0.439,0.333,0.832,0.593,1.174c0.928,1.226,2.512,1.884,4.128,1.785
						c5.754-0.353,7.904-2.568,8.456-5.031C83.379,84.685,83.421,84.089,83.4,83.5z"/>
				</g>
				<g>
					<path fill="#1B2268" d="M75.613,81.345c0.18-0.014,0.328-0.008,0.487,0c0.158,0.01,0.312,0.022,0.466,0.045
						c0.309,0.043,0.613,0.104,0.908,0.188c0.595,0.164,1.171,0.393,1.684,0.716c0.053,0.033,0.065,0.1,0.03,0.146
						c-0.024,0.031-0.063,0.048-0.102,0.047l-0.003-0.002c-0.306-0.016-0.598-0.045-0.891-0.061
						c-0.291-0.02-0.581-0.036-0.867-0.046c-0.286-0.011-0.571-0.018-0.854-0.024l-0.421-0.009
						c-0.135-0.006-0.285-0.007-0.402-0.015l-0.03-0.002c-0.294-0.02-0.518-0.256-0.497-0.527
						C75.142,81.554,75.354,81.363,75.613,81.345z"/>
				</g>
				<g>
					<path fill="#1B2268" d="M74.478,90.802c-1.693,0-3.298-0.75-4.25-2.004c-0.865-1.14-1.46-3.028,0.608-5.556
						c1.01-1.233,2.592-1.936,4.266-1.921l0.022-2.604c0-0.153,0.081-0.3,0.214-0.393c0.111-0.075,2.753-1.856,6.498-0.872
						c0.136,0.036,0.252,0.121,0.321,0.237c0.134,0.223,3.237,5.515,0.946,9.382c-1.31,2.212-4.095,3.464-8.275,3.72
						C74.709,90.798,74.594,90.802,74.478,90.802z M75.031,82.309c-1.314,0-2.551,0.561-3.343,1.529
						c-1.349,1.648-1.547,3.126-0.586,4.394c0.804,1.06,2.203,1.661,3.654,1.575c3.789-0.232,6.283-1.313,7.407-3.207
						c1.794-3.021-0.337-7.321-0.841-8.253c-2.583-0.603-4.509,0.289-5.133,0.641l-0.024,2.854
						c-0.002,0.136-0.063,0.265-0.169,0.356c-0.106,0.093-0.248,0.142-0.396,0.132l-0.334-0.017
						C75.188,82.31,75.11,82.309,75.031,82.309z"/>
				</g>
			</g>
			<g>
				<g>
					<path fill="#C0315F" d="M34.58,63.612c0,0-6.721,8.177-9.027,14.316c0,0,5.397-1.488,8.537,3.162l5.544-14.962L34.58,63.612z"
						/>
				</g>
				<g opacity="0.3">
					<path fill="#1B2268" d="M37.087,64.859l-1.438,5.479c-0.884,3.371-4.2,5.766-7.955,5.626c-0.477-0.019-0.921,0.004-1.316,0.047
						c-0.313,0.652-0.592,1.295-0.825,1.917c0,0,5.397-1.488,8.537,3.162l5.544-14.962L37.087,64.859z"/>
				</g>
				<g>
					<path fill="#1B2268" d="M34.09,81.585c-0.182,0-0.355-0.088-0.453-0.232c-2.879-4.265-7.726-3.01-7.932-2.951
						c-0.193,0.051-0.4,0-0.537-0.134c-0.139-0.134-0.185-0.327-0.12-0.502c2.308-6.143,8.83-14.115,9.106-14.452
						c0.159-0.193,0.448-0.251,0.679-0.136l5.053,2.517c0.229,0.115,0.336,0.365,0.251,0.594l-5.543,14.963
						c-0.067,0.18-0.24,0.309-0.444,0.33C34.13,81.585,34.11,81.585,34.09,81.585z M27.535,77.22c1.802,0,4.398,0.479,6.388,2.797
						l5.059-13.653l-4.248-2.115c-1.214,1.521-6.158,7.866-8.353,13.036C26.705,77.249,27.096,77.22,27.535,77.22z"/>
				</g>
			</g>
			<g>
				<g>
					<path fill="#C0315F" d="M72.661,63.612c0,0,6.721,8.177,9.028,14.316c0,0-5.397-1.488-8.536,3.162l-5.544-14.962L72.661,63.612
						z"/>
				</g>
				<g opacity="0.3">
					<path fill="#1B2268" d="M70.154,64.859l1.437,5.479c0.886,3.371,4.202,5.766,7.955,5.626c0.479-0.019,0.923,0.004,1.318,0.047
						c0.312,0.652,0.59,1.295,0.825,1.917c0,0-5.397-1.488-8.536,3.162l-5.544-14.962L70.154,64.859z"/>
				</g>
				<g>
					<path fill="#1B2268" d="M73.153,81.585c-0.021,0-0.042,0-0.061-0.004c-0.206-0.021-0.378-0.15-0.445-0.33l-5.544-14.963
						c-0.083-0.229,0.022-0.479,0.252-0.594l5.054-2.517c0.231-0.115,0.519-0.059,0.678,0.136c0.276,0.337,6.8,8.31,9.105,14.452
						c0.066,0.175,0.021,0.369-0.117,0.502c-0.14,0.136-0.347,0.186-0.539,0.131c-0.204-0.053-5.052-1.311-7.932,2.954
						C73.506,81.497,73.335,81.585,73.153,81.585z M68.26,66.363l5.059,13.653c2.475-2.884,5.887-2.921,7.543-2.732
						c-2.196-5.17-7.14-11.516-8.354-13.036L68.26,66.363z"/>
				</g>
			</g>
			<g>
				<g>
					<path fill="#86819B" d="M37.003,53.528c0,0-5.955,0.552-5.808,6.123c0.147,5.571,6.623,8.56,11.921,6.114
						C43.117,65.766,35.583,63.472,37.003,53.528z"/>
				</g>
				<g opacity="0.6">
					<path fill="#FFFFFF" d="M32.111,60.214c-0.109-4.114,3.109-5.49,4.801-5.929c0.024-0.248,0.054-0.498,0.091-0.757
						c0,0-5.955,0.552-5.808,6.123c0.072,2.71,1.64,4.808,3.842,5.967C33.329,64.4,32.172,62.53,32.111,60.214z"/>
				</g>
				<g>
					<path fill="#1B2268" d="M39.186,67.128c-1.599,0-3.18-0.394-4.583-1.17c-2.435-1.354-3.872-3.647-3.943-6.297
						c-0.156-5.958,6.226-6.617,6.29-6.624c0.163-0.014,0.323,0.041,0.438,0.148c0.113,0.108,0.167,0.258,0.146,0.408
						c-0.564,3.953,0.23,7.123,2.361,9.418c1.588,1.714,3.374,2.28,3.392,2.287c0.205,0.062,0.349,0.233,0.363,0.433
						c0.016,0.198-0.1,0.387-0.293,0.477C42.024,66.821,40.598,67.128,39.186,67.128z M36.391,54.132
						c-1.458,0.32-4.767,1.49-4.661,5.507c0.061,2.304,1.309,4.298,3.424,5.471c2.002,1.112,4.418,1.327,6.651,0.628
						c-0.739-0.387-1.735-1.032-2.68-2.039C37.565,62.039,35.866,59.051,36.391,54.132z"/>
				</g>
			</g>
			<g>
				<g>
					<path fill="#86819B" d="M70.238,53.528c0,0,5.956,0.552,5.809,6.123c-0.148,5.571-6.623,8.56-11.922,6.114
						C64.125,65.766,71.659,63.472,70.238,53.528z"/>
				</g>
				<g opacity="0.6">
					<g>
						<path fill="#FFFFFF" d="M70.238,53.258c0.058,0.404,0.1,0.794,0.128,1.172c1.484,0.302,5.361,1.522,5.242,6.031
							c-0.018,0.646-0.121,1.253-0.294,1.824c0.442-0.859,0.705-1.835,0.733-2.904C76.193,53.808,70.238,53.258,70.238,53.258z"/>
					</g>
					<g>
						<path fill="#FFFFFF" d="M69.364,60.684c-1.791,3.761-5.24,4.812-5.24,4.812c0.334,0.154,0.672,0.288,1.015,0.399
							C66.476,65.105,68.394,63.535,69.364,60.684z"/>
					</g>
				</g>
				<g opacity="0.3">
					<path fill="#1B2268" d="M74.277,55.269c0.172,0.578,0.264,1.236,0.243,1.986c-0.109,4.135-3.703,6.848-7.716,6.971
						c-1.402,1.15-2.679,1.54-2.679,1.54c5.3,2.445,11.774-0.543,11.922-6.114C76.102,57.563,75.301,56.182,74.277,55.269z"/>
				</g>
				<g>
					<path fill="#1B2268" d="M68.056,67.128c-1.412,0-2.838-0.307-4.169-0.92c-0.195-0.09-0.311-0.278-0.294-0.479
						c0.016-0.198,0.161-0.369,0.367-0.434c0.016-0.004,1.801-0.57,3.389-2.284c2.131-2.295,2.925-5.465,2.361-9.418
						c-0.021-0.15,0.032-0.3,0.146-0.408c0.114-0.107,0.275-0.162,0.437-0.148c0.065,0.007,6.447,0.666,6.289,6.624
						c-0.071,2.649-1.507,4.943-3.943,6.297C71.236,66.734,69.654,67.128,68.056,67.128z M65.437,65.737
						c2.234,0.699,4.65,0.484,6.652-0.628c2.116-1.173,3.363-3.167,3.425-5.471c0.106-4.017-3.203-5.187-4.662-5.507
						c0.524,4.919-1.175,7.907-2.733,9.566C67.171,64.705,66.176,65.351,65.437,65.737z"/>
				</g>
			</g>
			<g>
				<g>
					<path fill="#FFFFFF" d="M58.837,34.531c0,0-0.381-9.162,7.438-14.432c0.772-0.52,1.87-0.108,2.042,0.76
						c0.746,3.758,1.683,12.602-4.948,16.211C63.371,37.07,59.106,39.174,58.837,34.531z"/>
				</g>
				<g>
					<path fill="#D99CC0" d="M61.116,32.578c0,0-0.138-6.202,4.605-9.344c0.377-0.249,0.91-0.054,0.987,0.371
						c0.402,2.181,1.064,7.966-2.648,10.287c-0.286,0.182-0.606,0.315-0.944,0.39C62.365,34.445,61.22,34.39,61.116,32.578z"/>
				</g>
				<g opacity="0.3">
					<path fill="#1B2268" d="M68.318,20.859c-0.105-0.529-0.556-0.887-1.063-0.969C67.937,24,68.316,31.88,62.15,35.238
						c0,0-1.852,0.913-3.192,0.209c0.75,3.429,4.413,1.623,4.413,1.623C70.001,33.461,69.064,24.617,68.318,20.859z"/>
				</g>
				<g>
					<path fill="#1B2268" d="M61.363,38.038c-0.479,0-0.979-0.086-1.438-0.326c-0.984-0.512-1.529-1.573-1.621-3.154
						c0-0.001,0-0.005,0-0.006c-0.003-0.097-0.089-2.403,0.805-5.392c0.828-2.767,2.689-6.653,6.851-9.458
						c0.51-0.345,1.165-0.419,1.755-0.202c0.592,0.218,1.014,0.692,1.128,1.271c0.75,3.769,1.74,12.944-5.202,16.725
						c-0.006,0.004-0.013,0.006-0.019,0.009C63.562,37.536,62.524,38.038,61.363,38.038z M59.372,34.511
						c0.071,1.216,0.433,2.005,1.076,2.34c1.023,0.537,2.539-0.153,2.664-0.212c6.347-3.467,5.389-12.127,4.681-15.69
						c-0.048-0.245-0.22-0.438-0.472-0.533c-0.25-0.091-0.515-0.061-0.73,0.084C59.137,25.521,59.365,34.309,59.372,34.511z"/>
				</g>
			</g>
			<g>
				<g>
					<path fill="#FFFFFF" d="M48.464,33.68c0,0-2.651-8.838-11.833-11.665c-0.907-0.279-1.818,0.422-1.697,1.296
						c0.526,3.789,2.542,12.478,10.046,14.059C44.979,37.369,49.735,38.177,48.464,33.68z"/>
				</g>
				<g>
					<path fill="#D99CC0" d="M45.796,32.556c0,0-1.978-6.157-7.727-7.88c-0.458-0.138-0.916,0.212-0.848,0.652
						c0.345,2.269,1.665,8.17,6.118,9.382c0.344,0.096,0.705,0.136,1.063,0.11C45.2,34.764,46.31,34.375,45.796,32.556z"/>
				</g>
				<g opacity="0.3">
					<path fill="#1B2268" d="M48.464,33.68c0,0-2.651-8.838-11.833-11.665c-0.408-0.124-0.815-0.052-1.13,0.146
						c7.391,2.727,10.399,9.483,10.399,9.483c1.845,4.324-2.98,4.048-2.98,4.048c-0.884-0.085-1.708-0.273-2.476-0.546
						c1.229,1.044,2.722,1.842,4.536,2.224C44.979,37.369,49.735,38.177,48.464,33.68z"/>
				</g>
				<g>
					<path fill="#1B2268" d="M45.771,37.917c-0.495,0-0.851-0.057-0.887-0.063c-0.007-0.001-0.015-0.002-0.023-0.004
						c-7.855-1.655-9.93-10.675-10.457-14.476c-0.08-0.583,0.166-1.155,0.659-1.529c0.489-0.371,1.138-0.482,1.737-0.298
						c4.889,1.506,7.94,4.688,9.638,7.092c1.835,2.596,2.513,4.815,2.541,4.909c0,0.002,0.002,0.006,0.002,0.007
						c0.434,1.532,0.264,2.694-0.505,3.458C47.715,37.768,46.565,37.917,45.771,37.917z M45.084,36.885
						c0.134,0.021,1.809,0.253,2.61-0.544c0.5-0.501,0.586-1.354,0.254-2.533c-0.061-0.195-2.751-8.635-11.487-11.325
						c-0.252-0.077-0.514-0.031-0.722,0.125c-0.21,0.159-0.311,0.395-0.277,0.642C35.962,26.841,37.896,35.362,45.084,36.885z"/>
				</g>
			</g>
			<g>
				<path fill="#FFFFFF" d="M70.297,55.158c0,0-6.101,4.13-16.676,4.13s-16.677-4.13-16.677-4.13s-0.001-0.054,0-0.156
					c0,0,0,0,0-0.001c0.005-0.633,0.064-3.109,0.7-6.16c0.157-0.755,0.351-1.549,0.588-2.355c0.293-1.01,0.656-2.044,1.103-3.065
					c0.341-0.785,0.733-1.562,1.18-2.312c1.801-3.029,4.507-5.66,8.578-6.785c1.354-0.375,2.857-0.582,4.528-0.582
					C70.607,33.741,70.297,55.158,70.297,55.158z"/>
			</g>
			<g>
				<path fill="#86819B" d="M44.006,45.063c-1.018-0.021-2.903-0.274-4.671-1.644c0.341-0.785,0.733-1.562,1.18-2.312
					c0.848,1.035,2.183,2.509,3.65,3.537C44.363,44.782,44.254,45.069,44.006,45.063z"/>
			</g>
			<g>
				<path fill="#86819B" d="M41.469,49.608c-0.843,0.04-2.288-0.036-3.825-0.768c0.157-0.755,0.351-1.549,0.588-2.355
					c0.902,0.892,2.1,1.943,3.361,2.695C41.8,49.303,41.716,49.598,41.469,49.608z"/>
			</g>
			<g>
				<path fill="#86819B" d="M63.235,45.063c1.018-0.021,2.902-0.274,4.671-1.644c-0.341-0.785-0.732-1.562-1.178-2.312
					c-0.85,1.035-2.184,2.509-3.652,3.537C62.88,44.782,62.987,45.069,63.235,45.063z"/>
			</g>
			<g>
				<path fill="#86819B" d="M65.772,49.608c0.843,0.04,2.288-0.036,3.825-0.768c-0.158-0.755-0.351-1.549-0.587-2.355
					c-0.903,0.892-2.1,1.943-3.36,2.695C65.441,49.303,65.527,49.598,65.772,49.608z"/>
			</g>
			<g opacity="0.3">
				<path fill="#1B2268" d="M70.297,55.158c0,0-6.101,4.13-16.676,4.13s-16.677-4.13-16.677-4.13s-0.001-0.054,0-0.156
					c0,0,0,0,0-0.001c0.034-0.11,1.849-5.689,14.941-2.771c1.079,0.241,2.206,0.221,3.272-0.063
					c1.237-0.331,3.104-0.729,5.213-0.849c4.406-0.252,7.179-4.479,5.34-8.185c-1.196-2.407-2.958-4.735-5.544-6.161
					c-0.543-0.3-1.233-0.277-1.752,0.061c-0.753,0.489-2.195,1.115-4.654,1.115c-0.694,0.001-1.308-0.427-1.49-1.046
					c-0.253-0.865-1.005-2.089-3.178-2.779c1.354-0.375,2.857-0.582,4.528-0.582C70.607,33.741,70.297,55.158,70.297,55.158z"/>
			</g>
			<g>
				<g>
					<ellipse fill="#1B2268" cx="47.857" cy="47.949" rx="2.335" ry="2.95"/>
				</g>
				<g>
					<ellipse fill="#FFFFFF" cx="48.278" cy="48.364" rx="0.755" ry="0.953"/>
				</g>
			</g>
			<g>
				<path fill="#1B2268" d="M49.791,43.75c-0.031-0.033-0.087-0.106-0.134-0.163c-0.049-0.063-0.1-0.122-0.152-0.185
					c-0.05-0.063-0.106-0.12-0.156-0.183c-0.054-0.06-0.111-0.117-0.165-0.179c-0.224-0.233-0.464-0.459-0.735-0.653
					c-0.134-0.103-0.279-0.186-0.426-0.276c-0.155-0.069-0.306-0.164-0.474-0.218c-0.329-0.144-0.69-0.211-1.071-0.289l-0.01-0.002
					c-0.057-0.011-0.093-0.063-0.08-0.115c0.008-0.037,0.039-0.064,0.076-0.074c0.389-0.093,0.811-0.152,1.233-0.113
					c0.214,0.008,0.422,0.053,0.636,0.091c0.204,0.062,0.418,0.111,0.614,0.199c0.398,0.16,0.778,0.372,1.104,0.642
					c0.163,0.132,0.317,0.276,0.455,0.435c0.07,0.076,0.135,0.157,0.198,0.243c0.064,0.088,0.114,0.166,0.181,0.285
					c0.155,0.282,0.034,0.627-0.271,0.771c-0.263,0.123-0.576,0.058-0.757-0.144L49.791,43.75z"/>
			</g>
			<g>
				<path fill="#1B2268" d="M56.358,43.194c0.066-0.119,0.116-0.197,0.181-0.285c0.063-0.086,0.127-0.167,0.198-0.243
					c0.138-0.158,0.292-0.303,0.455-0.435c0.327-0.27,0.707-0.481,1.104-0.642c0.197-0.088,0.41-0.138,0.614-0.199
					c0.213-0.038,0.421-0.083,0.636-0.091c0.422-0.039,0.844,0.021,1.233,0.113c0.056,0.014,0.09,0.068,0.076,0.118
					c-0.009,0.037-0.042,0.063-0.079,0.071l-0.009,0.002c-0.383,0.078-0.745,0.146-1.073,0.289
					c-0.169,0.054-0.318,0.148-0.474,0.218c-0.146,0.091-0.292,0.174-0.426,0.276c-0.271,0.194-0.511,0.42-0.735,0.653
					c-0.053,0.062-0.11,0.119-0.164,0.179c-0.052,0.063-0.108,0.12-0.158,0.183c-0.052,0.063-0.103,0.122-0.151,0.185
					c-0.048,0.057-0.103,0.13-0.135,0.163l-0.063,0.071c-0.22,0.242-0.611,0.275-0.875,0.071
					C56.288,43.72,56.229,43.427,56.358,43.194z"/>
			</g>
			<g>
				<path fill="#1B2268" d="M53.621,59.781c-10.628,0-16.737-4.053-16.992-4.226c-0.136-0.091-0.216-0.236-0.218-0.391
					c-0.007-0.479-0.093-11.755,6.562-17.98c2.791-2.613,6.375-3.936,10.648-3.936c4.274,0,7.857,1.322,10.648,3.936
					c6.655,6.226,6.568,17.502,6.562,17.98c-0.001,0.154-0.083,0.3-0.219,0.391C70.358,55.729,64.249,59.781,53.621,59.781z
					 M37.481,54.897c1.173,0.708,6.975,3.897,16.14,3.897c9.185,0,14.969-3.188,16.141-3.896
					c-0.029-1.706-0.447-11.592-6.255-17.023c-2.583-2.416-5.91-3.641-9.886-3.641c-3.977,0-7.302,1.225-9.886,3.641
					C37.928,43.307,37.509,53.19,37.481,54.897z"/>
			</g>
			<g>
				<g>
					<path fill="#86819B" d="M53.621,67.864c12.667,0,19.908-2.295,17.552-10.811c-1.577-5.702-8.916-5.04-13.59-3.981
						c-2.605,0.592-5.321,0.592-7.925,0c-4.674-1.059-12.013-1.721-13.59,3.981C33.713,65.569,40.953,67.864,53.621,67.864z"/>
				</g>
				<g opacity="0.3">
					<path fill="#1B2268" d="M71.173,57.054c-0.57-2.063-1.896-3.293-3.574-3.972c0.145,0.313,0.269,0.649,0.37,1.013
						c2.354,8.516-4.885,10.811-17.553,10.811c-6.172,0-11.053-0.546-14.166-2.088c1.93,3.854,8.239,5.047,17.371,5.047
						C66.289,67.864,73.529,65.569,71.173,57.054z"/>
				</g>
				<g opacity="0.6">
					<path fill="#FFFFFF" d="M71.173,57.054c-1.577-5.702-8.916-5.04-13.591-3.981c-2.604,0.592-5.319,0.592-7.923,0
						c-4.675-1.059-12.014-1.721-13.591,3.981c-0.604,2.187-0.575,3.961,0.014,5.393c-0.267-1.239-0.181-2.698,0.292-4.406
						c0.7-2.533,2.536-3.81,4.771-4.354c0.161-0.039,0.332-0.018,0.48,0.052c0.498,0.225,1.44,0.365,2.52,0.343
						c1.093-0.023,2.039-0.209,2.519-0.461c0.132-0.067,0.284-0.096,0.433-0.077c1.013,0.133,1.987,0.316,2.867,0.516
						c2.604,0.591,5.321,0.591,7.926,0c4.486-1.017,11.424-1.666,13.369,3.325C71.232,57.273,71.204,57.165,71.173,57.054z"/>
				</g>
				<g>
					<g>
						<ellipse fill="#1B2268" cx="46.009" cy="56.888" rx="1.275" ry="1.177"/>
					</g>
					<g>
						<ellipse fill="#1B2268" cx="61.233" cy="56.888" rx="1.275" ry="1.177"/>
					</g>
					<g>
						<path fill="#1B2268" d="M44.495,55.634c0.294-0.239,0.648-0.385,1.054-0.455c0.402-0.064,0.873-0.013,1.281,0.197
							c0.412,0.204,0.724,0.545,0.906,0.895c0.188,0.354,0.272,0.718,0.263,1.072c-0.007,0.278-0.257,0.498-0.558,0.491
							c-0.214-0.004-0.397-0.123-0.482-0.291l-0.011-0.024c-0.132-0.264-0.232-0.51-0.353-0.72c-0.119-0.213-0.24-0.387-0.402-0.525
							c-0.159-0.143-0.376-0.254-0.655-0.324c-0.276-0.072-0.604-0.097-0.941-0.104h-0.018c-0.072-0.001-0.128-0.056-0.127-0.122
							C44.452,55.688,44.469,55.655,44.495,55.634z"/>
					</g>
					<g>
						<path fill="#1B2268" d="M62.647,55.845c-0.339,0.008-0.667,0.032-0.942,0.104c-0.278,0.07-0.496,0.182-0.655,0.324
							c-0.16,0.139-0.283,0.313-0.401,0.525c-0.121,0.21-0.221,0.456-0.353,0.72l-0.013,0.024c-0.125,0.251-0.448,0.361-0.722,0.245
							c-0.196-0.084-0.312-0.26-0.316-0.445c-0.009-0.354,0.075-0.719,0.262-1.072c0.182-0.35,0.494-0.69,0.905-0.895
							c0.41-0.21,0.879-0.262,1.281-0.197c0.407,0.07,0.761,0.216,1.055,0.455c0.053,0.046,0.058,0.121,0.009,0.17
							c-0.024,0.026-0.059,0.04-0.093,0.041H62.647z"/>
					</g>
				</g>
				<g>
					<path fill="#1B2268" d="M54.891,64.015c0.716-0.176,1.41-0.316,2.085-0.503c0.674-0.184,1.338-0.371,1.967-0.631
						c0.632-0.251,1.232-0.555,1.788-0.911c0.561-0.354,1.074-0.76,1.568-1.196l0.011-0.011c0.212-0.188,0.552-0.183,0.756,0.014
						c0.189,0.182,0.198,0.461,0.032,0.65c-0.483,0.556-1.064,1.039-1.697,1.444c-0.163,0.096-0.321,0.197-0.489,0.286
						c-0.169,0.086-0.336,0.175-0.506,0.259l-0.524,0.22c-0.176,0.069-0.356,0.13-0.534,0.192c-0.722,0.229-1.461,0.401-2.214,0.464
						c-0.749,0.063-1.506,0.041-2.24-0.112c-0.049-0.01-0.079-0.055-0.069-0.102c0.008-0.031,0.035-0.056,0.066-0.063H54.891z"/>
				</g>
				<g>
					<path fill="#C34984" d="M58.351,63.612c0,0,0.637-1.539,0.711-3.215c0.074-1.676,3.372-2.535,3.635,0.702
						C62.697,61.1,61.713,62.658,58.351,63.612z"/>
				</g>
				<g opacity="0.3">
					<path fill="#1B2268" d="M59.828,59.202c0.393,0.043,0.773,0.223,1.073,0.572c0.654,0.768,0.476,1.885-0.339,2.506
						c-0.479,0.365-1.175,0.792-2.151,1.182c-0.037,0.096-0.06,0.15-0.06,0.15c3.362-0.954,4.346-2.513,4.346-2.513
						C62.512,58.832,60.839,58.576,59.828,59.202z"/>
				</g>
				<g>
					<path fill="#1B2268" d="M58.351,64.033c-0.124,0-0.246-0.046-0.334-0.132c-0.119-0.118-0.156-0.289-0.094-0.44
						c0.007-0.015,0.612-1.497,0.681-3.08c0.046-1.028,1.037-1.879,2.209-1.897c0.011-0.001,0.025-0.001,0.037-0.001
						c1.019,0,2.148,0.677,2.304,2.587c0.008,0.084-0.015,0.169-0.061,0.243c-0.043,0.07-1.115,1.713-4.606,2.702
						C58.441,64.028,58.396,64.033,58.351,64.033z M60.849,59.327c-0.006,0-0.015,0-0.021,0c-0.609,0.011-1.282,0.451-1.31,1.087
						c-0.042,0.975-0.264,1.894-0.454,2.522c2.026-0.727,2.912-1.648,3.161-1.951C62.102,59.944,61.595,59.327,60.849,59.327z"/>
				</g>
				<g>
					<path fill="#1B2268" d="M53.621,68.357c-9.396,0-14.661-1.277-17.074-4.146c-1.524-1.812-1.85-4.191-0.997-7.279
						c1.271-4.591,6.325-6.132,14.235-4.337c2.508,0.568,5.161,0.568,7.67,0c7.909-1.795,12.965-0.254,14.235,4.337
						c0.854,3.088,0.527,5.468-0.997,7.279C68.282,67.08,63.017,68.357,53.621,68.357z M43.954,52.856
						c-0.733,0-1.463,0.047-2.162,0.158c-2.814,0.445-4.566,1.846-5.207,4.161c-0.766,2.772-0.503,4.877,0.805,6.43
						c2.161,2.569,7.318,3.767,16.23,3.767c8.912,0,14.068-1.197,16.231-3.767c1.307-1.553,1.57-3.657,0.804-6.43
						c-0.64-2.315-2.393-3.716-5.207-4.161c-2.607-0.415-5.647,0.064-7.739,0.538c-2.676,0.606-5.503,0.605-8.179,0
						C48,53.205,45.961,52.856,43.954,52.856z"/>
				</g>
			</g>
			<g>
				<g>
					<path fill="#86819B" d="M53.621,36.942c0,0-0.634-3.293-5.037-2.764c0,0,0.001,0,0.003-0.001v-0.001
						c0.119-0.109,3.928-3.634,5.033-8.272c0,0,2.987,0.951,2.25,5.526c0,0,0,0,0.002-0.002c0.084-0.022,2.753-0.795,3.699-2.441
						C59.572,28.987,61.623,36.942,53.621,36.942z"/>
				</g>
				<g opacity="0.3">
					<path fill="#1B2268" d="M53.621,36.942c0,0-0.634-3.293-5.037-2.764c0-0.001,0,0,0-0.001c1.652-1.14,3.337-0.888,4.523-0.428
						c1.855,0.718,4.027,0.116,5.121-1.443c1.104-1.573,1.344-3.319,1.344-3.319S61.623,36.942,53.621,36.942z"/>
				</g>
				<g opacity="0.7">
					<path fill="#FFFFFF" d="M55.872,31.431c-0.181-1.734-0.975-3.005-1.402-3.574c-0.11-0.147-0.354-0.117-0.419,0.051
						c-2.038,5.221-5.357,6.24-5.462,6.271v-0.001c0.119-0.109,3.928-3.634,5.033-8.272C53.621,25.904,56.608,26.855,55.872,31.431z
						"/>
				</g>
				<g>
					<path fill="#1B2268" d="M56.146,31.855c-0.125,0.051-0.228,0.076-0.347,0.097c-0.114,0.021-0.232,0.035-0.351,0.04
						c-0.237,0.011-0.482-0.004-0.715-0.079c-0.048-0.016-0.074-0.065-0.057-0.11c0.005-0.015,0.015-0.025,0.025-0.034l0.004-0.004
						c0.087-0.073,0.169-0.137,0.248-0.204l0.225-0.196l0.217-0.189c0.068-0.061,0.148-0.123,0.203-0.168
						c0.226-0.182,0.569-0.162,0.766,0.045c0.199,0.206,0.177,0.524-0.048,0.707c-0.042,0.033-0.087,0.062-0.135,0.081
						L56.146,31.855z"/>
				</g>
				<g>
					<path fill="#1B2268" d="M53.621,37.435c-0.259,0-0.48-0.172-0.526-0.406c-0.023-0.112-0.62-2.821-4.442-2.36
						c-0.228,0.028-0.448-0.083-0.549-0.274c-0.102-0.189-0.058-0.419,0.104-0.567c0.038-0.034,3.817-3.521,4.891-8.028
						c0.032-0.136,0.128-0.255,0.26-0.324c0.133-0.067,0.292-0.081,0.435-0.036c0.131,0.043,3.028,1.019,2.705,5.24
						c0.818-0.335,2.057-0.974,2.6-1.924c0.104-0.182,0.318-0.284,0.54-0.258c0.221,0.026,0.4,0.175,0.452,0.374
						c0.042,0.164,1.008,4.038-1.137,6.545C57.809,36.757,56.014,37.435,53.621,37.435z M49.84,33.635
						c2.843,0.132,3.86,1.966,4.179,2.807c1.847-0.066,3.222-0.616,4.095-1.633c1.19-1.389,1.231-3.378,1.112-4.605
						c-1.27,1.146-3.103,1.673-3.198,1.699c-0.176,0.049-0.366,0.012-0.505-0.099c-0.139-0.109-0.206-0.277-0.18-0.444
						c0.47-2.924-0.657-4.203-1.373-4.705C53.044,29.805,51.015,32.353,49.84,33.635z"/>
				</g>
			</g>
			<g>
				<path fill="#1B2268" d="M66.842,44.964c-0.008-0.104-0.066-0.196-0.156-0.245c-0.539-0.299-1.105-0.503-1.632-0.641
					c-0.338-0.09-0.665-0.219-0.985-0.361c-3.581-1.611-6.28-0.399-7.581,0.475c-0.224,0.15-0.515,0.168-0.756,0.045
					c-1.504-0.771-3.148-0.445-4.072-0.145c-0.227,0.074-0.474,0.04-0.669-0.101c-1.159-0.827-3.929-2.263-7.633-0.623
					c-0.455,0.203-0.916,0.393-1.391,0.538c-0.469,0.146-0.964,0.345-1.436,0.617c-0.088,0.054-0.144,0.146-0.149,0.249
					l-0.063,0.993c-0.009,0.141,0.075,0.267,0.207,0.312c0.239,0.079,0.652,0.265,1.156,0.688c0.029,0.917,0.229,1.946,0.812,2.844
					c0.785,1.205,2.09,1.916,3.884,2.115c0.116,0.012,0.232,0.022,0.345,0.029c1.542,0.101,2.721-0.367,3.64-1.236
					c1.553-1.473,1.595-3.87,1.426-5.064c0.664-0.255,2.349-0.75,3.672,0.158c-0.062,1.058-0.043,3.709,1.507,5.282
					c0.891,0.906,2.122,1.299,3.661,1.169c0.115-0.01,0.229-0.021,0.346-0.036c1.788-0.231,3.083-0.967,3.844-2.187
					c0.566-0.907,0.746-1.941,0.759-2.858c0.497-0.432,0.905-0.625,1.143-0.71c0.13-0.047,0.212-0.177,0.201-0.315L66.842,44.964z
					 M49.652,49.827c-0.716,0.754-1.782,1.061-3.167,0.905c-1.488-0.164-2.555-0.727-3.17-1.673c-0.865-1.33-0.677-3.115-0.511-3.99
					c0.042-0.225,0.188-0.413,0.386-0.518c3.776-1.978,6.455-0.375,7.366,0.336c0.142,0.111,0.229,0.277,0.241,0.458
					C50.859,46.3,50.863,48.554,49.652,49.827z M63.988,49.305c-0.599,0.957-1.655,1.54-3.139,1.732
					c-1.383,0.181-2.454-0.106-3.184-0.844c-1.234-1.253-1.271-3.506-1.225-4.46c0.008-0.182,0.091-0.349,0.233-0.464
					c0.897-0.728,3.546-2.381,7.356-0.475c0.203,0.103,0.351,0.288,0.397,0.511C64.608,46.178,64.829,47.959,63.988,49.305z"/>
			</g>
			<g>
				<g>
					<path fill="#CDCDE2" d="M77.6,67.727l-3.156,22.619H32.798l-1.035-7.419l-2.122-15.2c-0.165-1.175,0.827-2.218,2.112-2.218
						h43.734C76.774,65.509,77.766,66.552,77.6,67.727z"/>
				</g>
				<g opacity="0.3">
					<path fill="#1B2268" d="M77.6,67.727l-3.156,22.619H32.798l-1.035-7.419c2.473,1.354,10.185,4.85,21.864,3.45
						c11.624-1.395,19.926-9.571,17.398-20.868h4.462C76.774,65.509,77.766,66.552,77.6,67.727z"/>
				</g>
				<g opacity="0.7">
					<path fill="#FFFFFF" d="M77.56,67.027c-0.218-0.86-1.051-1.519-2.072-1.519H31.753c-1.285,0-2.277,1.043-2.112,2.218
						l2.122,15.2l1.035,7.419h1.177l-0.838-6.009l-2.122-15.201c-0.165-1.174,0.828-2.219,2.113-2.219h3.727
						c0.073,0.566,1.698,1.018,3.695,1.018c1.995,0,3.621-0.451,3.694-1.018h32.618C77.108,66.917,77.343,66.956,77.56,67.027z"/>
				</g>
				<g>
					<path fill="#1B2268" d="M74.444,90.84H32.798c-0.269,0-0.495-0.185-0.529-0.43l-3.158-22.62
						c-0.098-0.7,0.136-1.408,0.642-1.939c0.505-0.53,1.235-0.835,2-0.835h43.736c0.766,0,1.496,0.305,2,0.835
						c0.506,0.531,0.74,1.239,0.642,1.939l-3.156,22.62C74.939,90.655,74.712,90.84,74.444,90.84z M33.268,89.854h40.706
						l3.097-22.189c0.06-0.422-0.082-0.845-0.384-1.163c-0.302-0.317-0.74-0.501-1.198-0.501H31.753
						c-0.458,0-0.896,0.184-1.198,0.501c-0.303,0.318-0.442,0.741-0.384,1.163L33.268,89.854z"/>
				</g>
			</g>
			<g>
				<g>
					<ellipse fill="#1B2268" cx="53.621" cy="78.721" rx="3.197" ry="2.951"/>
				</g>
				<g opacity="0.3">
					<path fill="#1B2268" d="M53.621,80.094c-1.469,0-2.704-0.917-3.079-2.163c-0.076,0.252-0.119,0.518-0.119,0.79
						c0,1.63,1.431,2.951,3.197,2.951c1.766,0,3.197-1.321,3.197-2.951c0-0.272-0.043-0.538-0.119-0.79
						C56.324,79.177,55.09,80.094,53.621,80.094z"/>
				</g>
				<g opacity="0.7">
					<path fill="#FFFFFF" d="M53.621,76.997c1.538,0,2.821,1.002,3.126,2.338c0.046-0.198,0.07-0.403,0.07-0.614
						c0-1.631-1.431-2.952-3.197-2.952c-1.767,0-3.197,1.321-3.197,2.952c0,0.211,0.024,0.416,0.071,0.614
						C50.8,77.999,52.083,76.997,53.621,76.997z"/>
				</g>
				<g>
					<path fill="#1B2268" d="M53.621,82.287c-2.13,0-3.863-1.6-3.863-3.566s1.733-3.566,3.863-3.566c2.129,0,3.863,1.6,3.863,3.566
						S55.75,82.287,53.621,82.287z M53.621,76.383c-1.396,0-2.532,1.049-2.532,2.338c0,1.29,1.136,2.338,2.532,2.338
						s2.532-1.048,2.532-2.338C56.153,77.432,55.018,76.383,53.621,76.383z"/>
				</g>
			</g>
			<g>
				<g>
					<path fill="#CDCDE2" d="M73.698,91.297H33.544c-0.794,0-1.438-0.595-1.438-1.327l0,0c0-0.734,0.645-1.33,1.438-1.33h40.153
						c0.794,0,1.439,0.596,1.439,1.33l0,0C75.137,90.702,74.492,91.297,73.698,91.297z"/>
				</g>
				<g opacity="0.3">
					<path fill="#1B2268" d="M73.698,88.64h-6.5c0,0.021,0.003,0.04,0.003,0.063c0,0.733-0.645,1.328-1.44,1.328H32.108
						c0.035,0.705,0.664,1.267,1.436,1.267h40.153c0.794,0,1.439-0.595,1.439-1.327C75.137,89.235,74.492,88.64,73.698,88.64z"/>
				</g>
				<g>
					<path fill="#1B2268" d="M73.698,91.792H33.544c-1.087,0-1.973-0.819-1.973-1.822c0-1.005,0.886-1.822,1.973-1.822h40.153
						c1.087,0,1.973,0.817,1.973,1.822C75.67,90.973,74.785,91.792,73.698,91.792z M33.544,89.133c-0.499,0-0.905,0.377-0.905,0.837
						c0,0.461,0.406,0.834,0.905,0.834h40.153c0.499,0,0.904-0.373,0.904-0.834c0-0.46-0.405-0.837-0.904-0.837H33.544z"/>
				</g>
			</g>
			<g>
				<g>
					<ellipse fill="#1B2268" cx="59.347" cy="48.176" rx="2.38" ry="3.009"/>
				</g>
				<g>
					<ellipse fill="#FFFFFF" cx="58.917" cy="48.6" rx="0.769" ry="0.973"/>
				</g>
			</g>
		</g>
		<g>
			<path fill="#1B2268" d="M22.447,91.264c1.296-0.254,2.593-0.321,3.89-0.349c1.296-0.035,2.593-0.017,3.89,0.005l1.945,0.013
				l1.945,0.002h3.89h15.561h15.561h7.78h1.946c0.648,0,1.296-0.023,1.944-0.033c0.649-0.011,1.297,0.005,1.945,0.047
				c0.65,0.05,1.297,0.13,1.946,0.315c0.098,0.028,0.153,0.124,0.124,0.215c-0.019,0.056-0.067,0.097-0.124,0.113
				c-0.648,0.186-1.295,0.268-1.946,0.315c-0.648,0.041-1.296,0.057-1.945,0.047c-0.648-0.01-1.296-0.033-1.944-0.033h-1.946h-7.78
				H53.568H38.007h-3.89l-1.945,0.002l-1.945,0.015c-1.296,0.019-2.593,0.037-3.89,0.002c-1.297-0.026-2.594-0.095-3.89-0.348
				c-0.098-0.019-0.162-0.109-0.141-0.198C22.322,91.325,22.379,91.277,22.447,91.264z"/>
		</g>
	</g>
</g>
<g>
	<path fill="#030104" d="M121.53,29.624h10.551v20.619h18.241V29.624h10.514v54.648h-10.514V60.311h-18.241v23.962H121.53V29.624z"
		/>
	<path fill="#030104" d="M202.036,43.854h10.142v40.419h-10.142v-4.271c-1.979,1.882-3.965,3.238-5.956,4.067
		c-1.992,0.83-4.15,1.245-6.475,1.245c-5.22,0-9.735-2.025-13.544-6.074c-3.81-4.05-5.714-9.084-5.714-15.102
		c0-6.242,1.843-11.355,5.529-15.344c3.686-3.987,8.163-5.981,13.433-5.981c2.424,0,4.7,0.459,6.827,1.375
		c2.127,0.917,4.094,2.291,5.901,4.124V43.854z M191.374,52.175c-3.135,0-5.739,1.108-7.813,3.325s-3.11,5.059-3.11,8.525
		c0,3.492,1.055,6.366,3.166,8.619c2.111,2.254,4.708,3.381,7.794,3.381c3.185,0,5.826-1.108,7.924-3.325
		c2.098-2.216,3.147-5.12,3.147-8.712c0-3.517-1.049-6.364-3.147-8.544C197.236,53.265,194.583,52.175,191.374,52.175z"/>
	<path fill="#030104" d="M220.054,43.854h8.693v5.089c0.941-2.006,2.192-3.529,3.752-4.569c1.56-1.04,3.269-1.561,5.126-1.561
		c1.313,0,2.687,0.348,4.124,1.041l-3.158,8.729c-1.189-0.594-2.167-0.892-2.935-0.892c-1.561,0-2.879,0.966-3.957,2.898
		c-1.078,1.932-1.616,5.721-1.616,11.368l0.037,1.969v16.346h-10.067V43.854z"/>
	<path fill="#030104" d="M276.597,28.25h10.142v56.022h-10.142v-4.271c-1.979,1.882-3.965,3.238-5.956,4.067
		c-1.992,0.83-4.15,1.245-6.475,1.245c-5.22,0-9.735-2.025-13.544-6.074c-3.81-4.05-5.714-9.084-5.714-15.102
		c0-6.242,1.843-11.355,5.529-15.344c3.686-3.987,8.164-5.981,13.433-5.981c2.424,0,4.699,0.459,6.827,1.375
		c2.127,0.917,4.094,2.291,5.901,4.124V28.25z M265.935,52.175c-3.135,0-5.739,1.108-7.813,3.325
		c-2.073,2.217-3.11,5.059-3.11,8.525c0,3.492,1.055,6.366,3.165,8.619c2.111,2.254,4.708,3.381,7.794,3.381
		c3.185,0,5.826-1.108,7.923-3.325c2.098-2.216,3.147-5.12,3.147-8.712c0-3.517-1.05-6.364-3.147-8.544
		S269.145,52.175,265.935,52.175z"/>
	<path fill="#030104" d="M293.965,29.624h10.233l7.896,34.885l9.757-34.885h8.65l9.901,34.885l7.821-34.885h10.234l-12.313,54.648
		h-9.978l-10.067-35.33l-9.882,35.33h-9.883L293.965,29.624z"/>
	<path display="none" fill="#030104" d="M384.445,42.813c3.813,0,7.398,0.954,10.755,2.861s5.975,4.495,7.857,7.764
		c1.882,3.27,2.823,6.799,2.823,10.588c0,3.814-0.947,7.381-2.842,10.7c-1.895,3.318-4.477,5.913-7.746,7.783
		c-3.269,1.869-6.872,2.805-10.811,2.805c-5.795,0-10.743-2.063-14.842-6.186c-4.1-4.124-6.148-9.133-6.148-15.027
		c0-6.316,2.315-11.579,6.947-15.789C374.501,44.646,379.17,42.813,384.445,42.813z M384.612,52.36c-3.15,0-5.774,1.096-7.87,3.288
		c-2.097,2.191-3.145,4.997-3.145,8.415c0,3.517,1.035,6.365,3.106,8.544c2.071,2.18,4.695,3.27,7.871,3.27
		c3.175,0,5.817-1.102,7.927-3.307c2.108-2.204,3.163-5.04,3.163-8.507c0-3.468-1.036-6.285-3.107-8.452
		C390.485,53.444,387.838,52.36,384.612,52.36z"/>
	<path fill="#030104" d="M411.788,43.854h8.693v5.089c0.94-2.006,2.191-3.529,3.752-4.569s3.27-1.561,5.127-1.561
		c1.313,0,2.687,0.348,4.124,1.041l-3.158,8.729c-1.188-0.594-2.167-0.892-2.935-0.892c-1.561,0-2.88,0.966-3.957,2.898
		c-1.077,1.932-1.616,5.721-1.616,11.368l0.037,1.969v16.346h-10.067V43.854z"/>
	<path fill="#030104" d="M438.573,28.25h10.143v32.268l14.935-16.664h12.737l-17.412,19.372l19.494,21.047h-12.59l-17.164-18.628
		v18.628h-10.143V28.25z"/>
</g>
<g id="freepik--Coffee--inject-10">
	
		<circle fill="none" stroke="#253238" stroke-width="10" stroke-linecap="round" stroke-linejoin="round" cx="380.713" cy="63.449" r="24.429"/>
	<path opacity="0.2" fill="#030104" enable-background="new    " d="M408.365,64.091c-5.21,8.54-7.072,7.385-24.824,15.912
		c-9.023,4.326-17.74-9.564-11.84-23.821c0.288-0.696,2.835-4.214,2.835-4.214c1.597-7.008,8.572-11.394,15.579-9.797
		c2.81,0.642,5.328,2.196,7.158,4.422c3.438-2.947,8.084-4.058,12.482-2.982c0.207,0.589,0.4,1.179,0.59,1.768
		c0.07,0.225,0.147,0.442,0.212,0.666c0.224,0.69,0.437,1.379,0.631,2.074c0.393,1.321,0.754,2.649,1.084,3.985
		c-1.908-0.617-3.979-0.492-5.8,0.347c-1.302,0.638-2.393,1.686-3.747,2.205c-1.356,0.519-3.23,0.224-3.749-1.133
		c0.654,2.725,3.536,1.91,6.259,2.446C409.479,56.788,410.558,60.496,408.365,64.091z"/>
	<path fill="#FFFFFF" stroke="#253238" stroke-linecap="round" stroke-linejoin="round" d="M400.344,59.877
		c0,0,4.374-0.59,6.447-0.277c0.999,0.141,1.906,0.654,2.541,1.438c0.179,0.225,0.283,0.498,0.301,0.783l0.235,3.418
		c0.027,0.39-0.11,0.772-0.377,1.056c-0.854,0.89-3.431,2.511-11.057,3.095C387.69,70.208,400.344,59.877,400.344,59.877z"/>
	<path fill="#FFFFFF" stroke="#253238" stroke-linecap="round" stroke-linejoin="round" d="M397.144,51.042
		c2.364,2.95,3.631,6.629,3.584,10.408c0,4.072-4.716,17.981-16.792,19.68c-12.782,1.768-23.062-9.147-20.869-22.313
		C364.588,49.692,386.883,38.288,397.144,51.042z"/>
	<ellipse fill="#FFFFFF" cx="381.525" cy="60.513" rx="18.548" ry="17.557"/>
	<ellipse fill="#253238" cx="381.49" cy="61.433" rx="15.229" ry="14.41"/>
	<path fill="none" stroke="#253238" stroke-linecap="round" stroke-linejoin="round" d="M400.073,60.513
		c0-9.695-8.305-17.551-18.548-17.551s-18.547,7.88-18.547,17.551"/>
	<path fill="none" stroke="#253238" stroke-linecap="round" stroke-linejoin="round" d="M395.188,72.396
		c3.125-3.167,4.881-7.434,4.892-11.883"/>
	<path fill="none" stroke="#253238" stroke-linecap="round" stroke-linejoin="round" d="M368.536,73.043
		c3.532,3.252,8.164,5.048,12.966,5.027c2.986,0.007,5.933-0.677,8.61-1.998"/>
	<path fill="none" stroke="#253238" stroke-linecap="round" stroke-linejoin="round" d="M365.86,69.914
		c0.241,0.365,0.501,0.719,0.766,1.061"/>
	<path fill="none" stroke="#253238" stroke-linecap="round" stroke-linejoin="round" d="M362.979,60.513
		c-0.001,2.601,0.604,5.166,1.768,7.491"/>
	<path fill="#FFFFFF" stroke="#253238" stroke-linecap="round" stroke-linejoin="round" d="M408.742,65.322
		c0,0-3.306-2.315-8.676-0.218"/>
	<path fill="#FFFFFF" stroke="#253238" stroke-linecap="round" stroke-linejoin="round" d="M405.902,66.926
		c-2.244,0.595-4.543,0.956-6.861,1.078"/>
	<path fill="#FFFFFF" stroke="#253238" stroke-linecap="round" stroke-linejoin="round" d="M407.616,66.194
		c-0.252,0.184-0.53,0.328-0.825,0.431"/>
	<path display="none" fill="#FFFFFF" d="M410.558,46.026c-0.064-0.224-0.142-0.442-0.212-0.666
		c-1.126-3.488-2.575-7.32-4.338-11.363c-0.324-0.748-0.666-1.508-1.008-2.274l-0.395,0.036c-1.691,0.17-3.472,0.383-4.862,1.343
		c-1.391,0.961-2.222,2.988-1.32,4.433c0.901,1.443,3.2,2.228,2.835,3.86c-3.778,2.128-8.387,1.88-12.589,2.946
		c-2.536,0.646-4.925,1.773-7.037,3.318l0,0c-0.667,0.497-1.305,1.032-1.91,1.603c-0.279,0.26-0.54,0.54-0.777,0.838l0,0
		c-0.362,0.424-0.594,0.944-0.666,1.496c-0.147,1.574,1.284,2.646,2.812,3.33c0.176,0.069,0.262,0.268,0.193,0.443
		c-0.035,0.089-0.104,0.158-0.193,0.193c-1.007,0.358-1.939,0.898-2.753,1.591l0,0c-0.28,0.253-0.303,0.686-0.05,0.966
		c0.161,0.179,0.403,0.26,0.64,0.214h0.235c0.598-0.05,1.199,0.023,1.769,0.212c0.817,0.199,1.442,0.858,1.597,1.685
		c0.095,1.18-1.268,2.276-3.035,2.411c-0.431,0.042-0.1,0.554,0.53,0.66c1.266,0.154,2.549,0.05,3.772-0.306
		c1.479-0.354,3.059-0.867,3.896-2.135c0.345-0.559,0.472-1.227,0.354-1.874c-0.067-0.863-0.713-1.572-1.567-1.721
		c2.733-0.323,5.438-0.865,8.086-1.621l0,0l0.831-0.253c0.81-0.207,1.578-0.543,2.28-0.996c0.414-0.281,0.756-0.657,0.996-1.096
		c0.59-1.18-0.253-3.06-1.561-2.812c3.801-1.491,7.82-2.357,11.663-3.736C409.332,46.521,409.957,46.286,410.558,46.026z"/>
</g>
</svg>
